<svg xmlns="http://www.w3.org/2000/svg" viewBox="0 0 64 64" xmlns:c2pa="http://c2pa.org/manifest"><metadata><c2pa:manifest>AAAWgmp1bWIAAAAeanVtZGMycGEAEQAQgAAAqgA4m3EDYzJwYQAAABZcanVtYgAAAEdqdW1kYzJtYQARABCAAACqADibcQN1cm46YzJwYTo1NjlhNWI1OS00YTZlLTQzM2MtODFkOC03ZmQ3Mzk3ZmI5M2YAAAADl2p1bWIAAAApanVtZGMyYXMAEQAQgAAAqgA4m3EDYzJwYS5hc3NlcnRpb25zAAAAALxqdW1iAAAARGp1bWRjYm9yABEAEIAAAKoAOJtxE2MycGEuaW5ncmVkaWVudC52MwAAAAAYYzJzaPwBgisCO1fJet3dkGt6P2oAAABwY2JvcqNpZGM6Zm9ybWF0bWltYWdlL3N2Zyt4bWxqaW5zdGFuY2VJRHgseG1wOmlpZDo4NTc2OWNlYy05YzRlLTQ4YTQtYmI3NS1hNjk3YjI4MjNkODJscmVsYXRpb25zaGlwaHBhcmVudE9mAAAB4mp1bWIAAABBanVtZGNib3IAEQAQgAAAqgA4m3ETYzJwYS5hY3Rpb25zLnYyAAAAABhjMnNoaL3iUDzpEQUJ3kqx5xcKrgAAAZljYm9yomdhY3Rpb25zgqJmYWN0aW9ua2MycGEub3BlbmVkanBhcmFtZXRlcnOha2luZ3JlZGllbnRzgaJjdXJseC1zZWxmI2p1bWJmPWMycGEuYXNzZXJ0aW9ucy9jMnBhLmluZ3JlZGllbnQudjNkaGFzaFggyKSdqqi0wEw5A+sAlsjb1luAsf9cf/Id4N61QUbc+y+kZmFjdGlvbngdY29tLmFudGhyb3BpYy5jbGF1ZGUucHJvdmlkZWRqcGFyYW1ldGVyc6F4H2NvbS5hbnRocm9waWMub3JpZ2luLWNvbmZpZGVuY2VndW5rbm93bmtkZXNjcmlwdGlvbnhmQ2xhdWRlIHByb3ZpZGVkIHRoaXMgZmlsZSBhdCB0aGUgcmVxdWVzdCBvZiBhIHVzZXIgYW5kIG1heSBoYXZlIGNyZWF0ZWQgb3IgbW9kaWZpZWQgdGhlIGZpbGUgY29udGVudHMubXNvZnR3YXJlQWdlbnShZG5hbWVmQ2xhdWRlcmFsbEFjdGlvbnNJbmNsdWRlZPUAAADIanVtYgAAAEBqdW1kY2JvcgARABCAAACqADibcRNjMnBhLmhhc2guZGF0YQAAAAAYYzJzaIo7Jia9xtYofv2E67zd7foAAACAY2JvcqVjYWxnZnNoYTI1NmNwYWRNAAAAAAAAAAAAAAAAAGRoYXNoWCAwHiup67agMTeuKusvuEJ52zWHiXCIOxpt0QR1nMKBaWRuYW1lbmp1bWJmIG1hbmlmZXN0amV4Y2x1c2lvbnOBomVzdGFydBh7Zmxlbmd0aBkeBAAAAj5qdW1iAAAAJ2p1bWRjMmNsABEAEIAAAKoAOJtxA2MycGEuY2xhaW0udjIAAAACD2Nib3KlY2FsZ2ZzaGEyNTZpc2lnbmF0dXJleE1zZWxmI2p1bWJmPS9jMnBhL3VybjpjMnBhOjU2OWE1YjU5LTRhNmUtNDMzYy04MWQ4LTdmZDczOTdmYjkzZi9jMnBhLnNpZ25hdHVyZWppbnN0YW5jZUlEeCx4bXA6aWlkOjQ0NzgyZWUzLWVhYTktNDczMy04OWMzLTIyZWY1MjhkNDcwNnJjcmVhdGVkX2Fzc2VydGlvbnODomN1cmx4LXNlbGYjanVtYmY9YzJwYS5hc3NlcnRpb25zL2MycGEuaW5ncmVkaWVudC52M2RoYXNoWCDIpJ2qqLTATDkD6wCWyNvWW4Cx/1x/8h3g3rVBRtz7L6JjdXJseCpzZWxmI2p1bWJmPWMycGEuYXNzZXJ0aW9ucy9jMnBhLmFjdGlvbnMudjJkaGFzaFggksIYVe0RAcdSsfSDthS4BojtW5KTDpq50VGGgUlLbHSiY3VybHgpc2VsZiNqdW1iZj1jMnBhLmFzc2VydGlvbnMvYzJwYS5oYXNoLmRhdGFkaGFzaFggIsHvrUMMA1J6btcNLKPaYnyZIzQbc9axOpH0+3ocbhN0Y2xhaW1fZ2VuZXJhdG9yX2luZm+jZG5hbWVvQW50aHJvcGljIEZpbGVzZ3ZlcnNpb25lMS4wLjBrc3BlY1ZlcnNpb25lMi40LjAAABA4anVtYgAAAChqdW1kYzJjcwARABCAAACqADibcQNjMnBhLnNpZ25hdHVyZQAAABAIY2JvctKEWQISogEmGCFZAgowggIGMIIBjaADAgECAhRA5aAK7sI50L64g/oGQgU9Z1UTADAKBggqhkjOPQQDAzBJMRcwFQYDVQQKEw5BbnRocm9waWMsIFBCQzEuMCwGA1UEAxMlQW50aHJvcGljIENvbnRlbnQgQ3JlZGVudGlhbHMgUm9vdCBDQTAeFw0yNjA4MDcxODQzNTZaFw0yODA4MDYxOTQzNTZaMEQxFzAVBgNVBAoTDkFudGhyb3BpYywgUEJDMSkwJwYDVQQDEyBBbnRocm9waWMgQ2xhdWRlIENvbnRlbnQgU2lnbmluZzBZMBMGByqGSM49AgEGCCqGSM49AwEHA0IABJh6CmvLUBgFFNU0vUKlOVtE6djd17L5SuwX0LemFisBM3dkd/3cyjxFA3Qo5S46fX0/ihY0VZ7mfb9KF703t5OjWDBWMA4GA1UdDwEB/wQEAwIHgDAVBgNVHSUEDjAMBgorBgEEAYPoXgIBMAwGA1UdEwEB/wQCMAAwHwYDVR0jBBgwFoAUzlHiBIFOZFsj+OPEz5o+nMHXXMIwCgYIKoZIzj0EAwMDZwAwZAIwMXMdFJ4BetLLVY7ORuE9noqbbAZOZn/aArXyTwFAZfKrPzxF2vPoJNf1+UCdg1XGAjBwX1zd9WGqYkqmL5SFqw1QySjr1zJfpJM9+1rdDwSPLMOPOjKuiXjoU/pUUeG9RwmhY3BhZFkNngAAAAAAAAAAAAAAAAAAAAAAAAAAAAAAAAAAAAAAAAAAAAAAAAAAAAAAAAAAAAAAAAAAAAAAAAAAAAAAAAAAAAAAAAAAAAAAAAAAAAAAAAAAAAAAAAAAAAAAAAAAAAAAAAAAAAAAAAAAAAAAAAAAAAAAAAAAAAAAAAAAAAAAAAAAAAAAAAAAAAAAAAAAAAAAAAAAAAAAAAAAAAAAAAAAAAAAAAAAAAAAAAAAAAAAAAAAAAAAAAAAAAAAAAAAAAAAAAAAAAAAAAAAAAAAAAAAAAAAAAAAAAAAAAAAAAAAAAAAAAAAAAAAAAAAAAAAAAAAAAAAAAAAAAAAAAAAAAAAAAAAAAAAAAAAAAAAAAAAAAAAAAAAAAAAAAAAAAAAAAAAAAAAAAAAAAAAAAAAAAAAAAAAAAAAAAAAAAAAAAAAAAAAAAAAAAAAAAAAAAAAAAAAAAAAAAAAAAAAAAAAAAAAAAAAAAAAAAAAAAAAAAAAAAAAAAAAAAAAAAAAAAAAAAAAAAAAAAAAAAAAAAAAAAAAAAAAAAAAAAAAAAAAAAAAAAAAAAAAAAAAAAAAAAAAAAAAAAAAAAAAAAAAAAAAAAAAAAAAAAAAAAAAAAAAAAAAAAAAAAAAAAAAAAAAAAAAAAAAAAAAAAAAAAAAAAAAAAAAAAAAAAAAAAAAAAAAAAAAAAAAAAAAAAAAAAAAAAAAAAAAAAAAAAAAAAAAAAAAAAAAAAAAAAAAAAAAAAAAAAAAAAAAAAAAAAAAAAAAAAAAAAAAAAAAAAAAAAAAAAAAAAAAAAAAAAAAAAAAAAAAAAAAAAAAAAAAAAAAAAAAAAAAAAAAAAAAAAAAAAAAAAAAAAAAAAAAAAAAAAAAAAAAAAAAAAAAAAAAAAAAAAAAAAAAAAAAAAAAAAAAAAAAAAAAAAAAAAAAAAAAAAAAAAAAAAAAAAAAAAAAAAAAAAAAAAAAAAAAAAAAAAAAAAAAAAAAAAAAAAAAAAAAAAAAAAAAAAAAAAAAAAAAAAAAAAAAAAAAAAAAAAAAAAAAAAAAAAAAAAAAAAAAAAAAAAAAAAAAAAAAAAAAAAAAAAAAAAAAAAAAAAAAAAAAAAAAAAAAAAAAAAAAAAAAAAAAAAAAAAAAAAAAAAAAAAAAAAAAAAAAAAAAAAAAAAAAAAAAAAAAAAAAAAAAAAAAAAAAAAAAAAAAAAAAAAAAAAAAAAAAAAAAAAAAAAAAAAAAAAAAAAAAAAAAAAAAAAAAAAAAAAAAAAAAAAAAAAAAAAAAAAAAAAAAAAAAAAAAAAAAAAAAAAAAAAAAAAAAAAAAAAAAAAAAAAAAAAAAAAAAAAAAAAAAAAAAAAAAAAAAAAAAAAAAAAAAAAAAAAAAAAAAAAAAAAAAAAAAAAAAAAAAAAAAAAAAAAAAAAAAAAAAAAAAAAAAAAAAAAAAAAAAAAAAAAAAAAAAAAAAAAAAAAAAAAAAAAAAAAAAAAAAAAAAAAAAAAAAAAAAAAAAAAAAAAAAAAAAAAAAAAAAAAAAAAAAAAAAAAAAAAAAAAAAAAAAAAAAAAAAAAAAAAAAAAAAAAAAAAAAAAAAAAAAAAAAAAAAAAAAAAAAAAAAAAAAAAAAAAAAAAAAAAAAAAAAAAAAAAAAAAAAAAAAAAAAAAAAAAAAAAAAAAAAAAAAAAAAAAAAAAAAAAAAAAAAAAAAAAAAAAAAAAAAAAAAAAAAAAAAAAAAAAAAAAAAAAAAAAAAAAAAAAAAAAAAAAAAAAAAAAAAAAAAAAAAAAAAAAAAAAAAAAAAAAAAAAAAAAAAAAAAAAAAAAAAAAAAAAAAAAAAAAAAAAAAAAAAAAAAAAAAAAAAAAAAAAAAAAAAAAAAAAAAAAAAAAAAAAAAAAAAAAAAAAAAAAAAAAAAAAAAAAAAAAAAAAAAAAAAAAAAAAAAAAAAAAAAAAAAAAAAAAAAAAAAAAAAAAAAAAAAAAAAAAAAAAAAAAAAAAAAAAAAAAAAAAAAAAAAAAAAAAAAAAAAAAAAAAAAAAAAAAAAAAAAAAAAAAAAAAAAAAAAAAAAAAAAAAAAAAAAAAAAAAAAAAAAAAAAAAAAAAAAAAAAAAAAAAAAAAAAAAAAAAAAAAAAAAAAAAAAAAAAAAAAAAAAAAAAAAAAAAAAAAAAAAAAAAAAAAAAAAAAAAAAAAAAAAAAAAAAAAAAAAAAAAAAAAAAAAAAAAAAAAAAAAAAAAAAAAAAAAAAAAAAAAAAAAAAAAAAAAAAAAAAAAAAAAAAAAAAAAAAAAAAAAAAAAAAAAAAAAAAAAAAAAAAAAAAAAAAAAAAAAAAAAAAAAAAAAAAAAAAAAAAAAAAAAAAAAAAAAAAAAAAAAAAAAAAAAAAAAAAAAAAAAAAAAAAAAAAAAAAAAAAAAAAAAAAAAAAAAAAAAAAAAAAAAAAAAAAAAAAAAAAAAAAAAAAAAAAAAAAAAAAAAAAAAAAAAAAAAAAAAAAAAAAAAAAAAAAAAAAAAAAAAAAAAAAAAAAAAAAAAAAAAAAAAAAAAAAAAAAAAAAAAAAAAAAAAAAAAAAAAAAAAAAAAAAAAAAAAAAAAAAAAAAAAAAAAAAAAAAAAAAAAAAAAAAAAAAAAAAAAAAAAAAAAAAAAAAAAAAAAAAAAAAAAAAAAAAAAAAAAAAAAAAAAAAAAAAAAAAAAAAAAAAAAAAAAAAAAAAAAAAAAAAAAAAAAAAAAAAAAAAAAAAAAAAAAAAAAAAAAAAAAAAAAAAAAAAAAAAAAAAAAAAAAAAAAAAAAAAAAAAAAAAAAAAAAAAAAAAAAAAAAAAAAAAAAAAAAAAAAAAAAAAAAAAAAAAAAAAAAAAAAAAAAAAAAAAAAAAAAAAAAAAAAAAAAAAAAAAAAAAAAAAAAAAAAAAAAAAAAAAAAAAAAAAAAAAAAAAAAAAAAAAAAAAAAAAAAAAAAAAAAAAAAAAAAAAAAAAAAAAAAAAAAAAAAAAAAAAAAAAAAAAAAAAAAAAAAAAAAAAAAAAAAAAAAAAAAAAAAAAAAAAAAAAAAAAAAAAAAAAAAAAAAAAAAAAAAAAAAAAAAAAAAAAAAAAAAAAAAAAAAAAAAAAAAAAAAAAAAAAAAAAAAAAAAAAAAAAAAAAAAAAAAAAAAAAAAAAAAAAAAAAAAAAAAAAAAAAAAAAAAAAAAAAAAAAAAAAAAAAAAAAAAAAAAAAAAAAAAAAAAAAAAAAAAAAAAAAAAAAAAAAAAAAAAAAAAAAAAAAAAAAAAAAAAAAAAAAAAAAAAAAAAAAAAAAAAAAAAAAAAAAAAAAAAAAAAAAAAAAAAAAAAAAAAAAAAAAAAAAAAAAAAAAAAAAAAAAAAAAAAAAAAAAAAAAAAAAAAAAAAAAAAAAAAAAAAAAAAAAAAAAAAAAAAAAAAAAAAAAAAAAAAAAAAAAAAAAAAAAAAAAAAAAAAAAAAAAAAAAAAAAAAAAAAAAAAAAAAAAAAAAAAAAAAAAAAAAAAAAAAAAAAAAAAAAAAAAAAAAAAAAAAAAAAAAAAAAAAAAAAAAAAAAAAAAAAAAAAAAAAAAAAAAAAAAAAAAAAAAAAAAAAAAAAAAAAAAAAAAAAAAAAAAAAAAAAAAAAAAAAAAAAAAAAAAAAAAAAAAAAAAAAAAAAAAAAAAAAAAAAAAAAAAAAAAAAAAAAAAAAAAAAAAAAAAAAAAAAAAAAAAAAAAAAAAAAAAAAAAAAAAAAAAAAAAAAAAAAAAAAAAAAAAAAAAAAAAAAAAAAAAAAAAAAAAAAAAAAAAAAAAAAAAAAAAAAAAAAAAAAAAAAAAAAAAAAAAAAAAAAAAAAAAAAAAAAAAAAAAAAAAAAAAAAAAAAAAAAAAAAAAAAAAAAAAAAAAAAAAAAAAAAAAAAAAAAAAAAAAAAAAAAAAAAAAAAAAAAAAAAAAAAAAAAAAAAAAAAAAAAAAAAAAAAAAAAAAAAAAAAAAAAAAAAAAAAAAAAAAAAAAAAAAAAAAAAAAAAAAAAAAAAAAAAAAAAAAAAAAAAAAAAAAAAAAAAAAAAAAAAAAAAAAAAAAAAAAAAAAAAAAAAAAAAAAAAAAAAAAAAAAAAAAAAAAAAAAAAAAAAAAAAAAAAAAAAAAAAAAAAAAAAAAAAAAAAAAAAAAAAAAAAAAAAAAAAAAAAAAAAAAAAAAAAAAAAAAAAAAAAAAAAAAAAAAAAAAAAAAAAAAAAAAAAAAAAAAAAAAAAAAAAAAAAAAAAAAAAAAAAAAAAAAAAAAAAAAAAAAAAAAAAAAAAAAAAAAAAAAAAAAAAAAAAAAAAAAAAAAAAAAAAAAAAAAAAAAAAAAAAAAAAAAAAAAAAAAAAAAAAAAAAAAAAAAAAAAAAAAAAAAAAAAAAAAAAAAAAAAAAAAAAAAAAAAAAAAAAAAAAAAAAAAAAAAAAAAAAAAAAAAAAAAAAAAAAAAAAAAAAAAAAAAAAAAAAAAAAAAAAAAAAAAAAAAAAAAAAAAAAAAAAAAAAAAAAAAAAAAAAAAAAAAAAAAAAAAAAAAAAAAAAAAAAAAAAAAAAAAAAAAAAAAAAAAAAAAAAAAAAAAAAAAAAAAAAAAAAAAAAAAAAAAAAAAAAAAAAAAAAAAAAAAAAAAAAAAAAAAAAAAAAAAAAAAAAAAAAAAAAAAAAAAAAAAAAAAAAAAAAAAAAAAAAAAAAAAAAAAAAAAAAAAAAAAAPZYQEK7Z+KE1Fcag/KDqhxbHioDmcZOyNZ6/oCz+3owub52QDIjweQEIhIOnk+lXZ8niNCW2GGhLRg8EfNO1R7EK2s=</c2pa:manifest></metadata><path d="M32 60 C32 54 32 46 32 37" stroke="#0B1F3D" stroke-width="4" stroke-linecap="round" fill="none"/><path d="M32.0 36.1L31.9 36.4L31.7 37.0L31.6 38.0L31.4 38.9L31.1 39.7L30.9 40.2L30.7 40.2L30.5 40.4L30.3 40.6L30.1 40.9L29.8 41.3L29.5 41.8L29.2 42.3L28.9 42.8L28.6 43.3L28.2 43.7L27.9 44.1L27.6 44.4L27.2 44.5L27.0 44.6L26.7 44.6L26.5 44.5L26.2 44.5L25.9 44.6L25.6 44.6L25.3 44.7L25.0 44.8L24.7 44.9L24.3 45.0L23.9 45.1L23.6 45.3L23.2 45.4L22.8 45.5L22.5 45.6L22.1 45.7L21.7 45.8L21.3 45.8L21.0 45.9L20.6 45.9L20.3 45.8L19.9 45.8L19.6 45.7L19.4 45.6L19.1 45.4L18.8 45.3L18.5 45.2L18.2 45.1L17.8 45.0L17.5 45.0L17.1 44.9L16.7 44.9L16.3 44.9L15.9 44.8L15.5 44.8L15.1 44.7L14.7 44.7L14.3 44.6L13.8 44.6L13.4 44.5L13.1 44.3L12.7 44.2L12.4 44.1L12.0 43.9L11.8 43.7L11.5 43.4L11.3 43.2L11.1 42.9L10.9 42.6L10.8 42.2L10.7 41.9L10.7 41.5L10.6 41.1L10.6 40.8L10.7 40.4L10.7 40.0L10.8 39.6L10.8 39.2L10.8 38.8L10.9 38.5L10.9 38.1L10.9 37.8L10.8 37.5L10.8 37.2L10.7 36.9L10.5 36.6L10.5 36.3L10.4 36.0L10.4 35.7L10.5 35.4L10.6 35.0L10.7 34.7L10.8 34.4L11.0 34.0L11.2 33.7L11.3 33.4L11.5 33.0L11.6 32.7L11.7 32.4L11.8 32.1L11.9 31.9L11.9 31.6L11.9 31.3L11.8 31.1L11.7 30.8L11.5 30.6L11.3 30.4L11.0 30.1L10.7 29.9L10.3 29.6L10.0 29.4L9.6 29.1L9.2 28.9L8.8 28.6L8.5 28.3L8.1 28.0L7.8 27.7L7.5 27.4L7.3 27.1L7.1 26.7L7.0 26.4L6.9 26.1L6.9 25.8L7.0 25.5L7.0 25.1L7.0 24.8L6.9 24.5L6.9 24.2L6.7 23.8L6.6 23.5L6.5 23.1L6.3 22.7L6.1 22.3L5.9 22.0L5.8 21.6L5.6 21.2L5.4 20.8L5.3 20.4L5.2 19.9L5.1 19.6L5.1 19.2L5.1 18.8L5.1 18.4L5.2 18.0L5.4 17.7L5.6 17.4L5.8 17.1L6.1 16.8L6.4 16.6L6.8 16.3L7.2 16.1L7.6 15.9L8.0 15.7L8.4 15.5L8.8 15.4L9.2 15.2L9.6 15.0L9.9 14.8L10.3 14.6L10.5 14.4L10.8 14.2L11.1 14.0L11.4 13.8L11.8 13.7L12.3 13.6L12.7 13.5L13.2 13.5L13.7 13.5L14.3 13.5L14.8 13.5L15.3 13.6L15.8 13.6L16.3 13.7L16.7 13.7L17.2 13.7L17.5 13.7L17.9 13.6L18.2 13.5L18.4 13.4L18.6 13.2L18.8 13.0L19.0 12.8L19.1 12.5L19.2 12.2L19.3 11.9L19.4 11.5L19.5 11.1L19.6 10.8L19.7 10.4L19.8 10.0L19.9 9.6L20.0 9.2L20.1 8.8L20.3 8.4L20.4 8.0L20.6 7.7L20.8 7.4L21.1 7.1L21.3 6.9L21.6 6.7L21.9 6.5L22.2 6.3L22.5 6.3L22.9 6.2L23.2 6.0L23.5 5.9L23.8 5.8L24.1 5.6L24.4 5.4L24.7 5.1L25.0 4.9L25.3 4.6L25.6 4.3L25.9 4.1L26.2 3.7L26.5 3.4L26.8 3.1L27.1 2.8L27.4 2.5L27.8 2.2L28.1 1.9L28.5 1.6L28.8 1.3L29.2 1.1L29.6 0.8L30.0 0.6L30.4 0.5L30.8 0.3L31.2 0.3L31.6 0.2L32.0 0.2L32.4 0.2L32.8 0.3L33.2 0.3L33.6 0.5L34.0 0.6L34.4 0.8L34.8 1.1L35.2 1.3L35.5 1.6L35.9 1.9L36.2 2.2L36.6 2.5L36.9 2.8L37.2 3.1L37.5 3.4L37.8 3.7L38.1 4.1L38.4 4.3L38.7 4.6L39.0 4.9L39.3 5.1L39.6 5.4L39.9 5.6L40.2 5.8L40.5 5.9L40.8 6.0L41.1 6.2L41.5 6.3L41.8 6.3L42.1 6.5L42.4 6.7L42.7 6.9L42.9 7.1L43.2 7.4L43.4 7.7L43.6 8.0L43.7 8.4L43.9 8.8L44.0 9.2L44.1 9.6L44.2 10.0L44.3 10.4L44.4 10.8L44.5 11.1L44.6 11.5L44.7 11.9L44.8 12.2L44.9 12.5L45.0 12.8L45.2 13.0L45.4 13.2L45.6 13.4L45.8 13.5L46.1 13.6L46.5 13.7L46.8 13.7L47.3 13.7L47.7 13.7L48.2 13.6L48.7 13.6L49.2 13.5L49.7 13.5L50.3 13.5L50.8 13.5L51.3 13.5L51.7 13.6L52.2 13.7L52.6 13.8L52.9 14.0L53.2 14.2L53.5 14.4L53.7 14.6L54.1 14.8L54.4 15.0L54.8 15.2L55.2 15.4L55.6 15.5L56.0 15.7L56.4 15.9L56.8 16.1L57.2 16.3L57.6 16.6L57.9 16.8L58.2 17.1L58.4 17.4L58.6 17.7L58.8 18.0L58.9 18.4L58.9 18.8L58.9 19.2L58.9 19.6L58.8 19.9L58.7 20.4L58.6 20.8L58.4 21.2L58.2 21.6L58.1 22.0L57.9 22.3L57.7 22.7L57.5 23.1L57.4 23.5L57.3 23.8L57.1 24.2L57.1 24.5L57.0 24.8L57.0 25.1L57.0 25.5L57.1 25.8L57.1 26.1L57.0 26.4L56.9 26.7L56.7 27.1L56.5 27.4L56.2 27.7L55.9 28.0L55.5 28.3L55.2 28.6L54.8 28.9L54.4 29.1L54.0 29.4L53.7 29.6L53.3 29.9L53.0 30.1L52.7 30.4L52.5 30.6L52.3 30.8L52.2 31.1L52.1 31.3L52.1 31.6L52.1 31.9L52.2 32.1L52.3 32.4L52.4 32.7L52.5 33.0L52.7 33.4L52.8 33.7L53.0 34.0L53.2 34.4L53.3 34.7L53.4 35.0L53.5 35.4L53.6 35.7L53.6 36.0L53.5 36.3L53.5 36.6L53.3 36.9L53.2 37.2L53.2 37.5L53.1 37.8L53.1 38.1L53.1 38.5L53.2 38.8L53.2 39.2L53.2 39.6L53.3 40.0L53.3 40.4L53.4 40.8L53.4 41.1L53.3 41.5L53.3 41.9L53.2 42.2L53.1 42.6L52.9 42.9L52.7 43.2L52.5 43.4L52.2 43.7L52.0 43.9L51.6 44.1L51.3 44.2L50.9 44.3L50.6 44.5L50.2 44.6L49.7 44.6L49.3 44.7L48.9 44.7L48.5 44.8L48.1 44.8L47.7 44.9L47.3 44.9L46.9 44.9L46.5 45.0L46.2 45.0L45.8 45.1L45.5 45.2L45.2 45.3L44.9 45.4L44.6 45.6L44.4 45.7L44.1 45.8L43.7 45.8L43.4 45.9L43.0 45.9L42.7 45.8L42.3 45.8L41.9 45.7L41.5 45.6L41.2 45.5L40.8 45.4L40.4 45.3L40.1 45.1L39.7 45.0L39.3 44.9L39.0 44.8L38.7 44.7L38.4 44.6L38.1 44.6L37.8 44.5L37.5 44.5L37.3 44.6L37.0 44.6L36.8 44.5L36.4 44.4L36.1 44.1L35.8 43.7L35.4 43.3L35.1 42.8L34.8 42.3L34.5 41.8L34.2 41.3L33.9 40.9L33.7 40.6L33.5 40.4L33.3 40.2L33.1 40.2L32.9 39.7L32.6 38.9L32.4 38.0L32.3 37.0L32.1 36.4L32.0 36.1Z" fill="#0B1F3D"/></svg>